<svg width="176" height="46" viewBox="0 0 176 46" fill="none" xmlns="http://www.w3.org/2000/svg">
<path d="M50.5332 34.3557V19.0288H56.3814C58.1641 19.0288 59.6714 19.3331 60.9034 19.9418C62.1353 20.5506 63.0629 21.4274 63.6861 22.5724C64.3238 23.7029 64.6427 25.0726 64.6427 26.6814C64.6427 28.2757 64.3238 29.6453 63.6861 30.7903C63.0629 31.9353 62.1353 32.8194 60.9034 33.4426C59.6714 34.0513 58.1641 34.3557 56.3814 34.3557H50.5332ZM53.9247 31.5729H56.1857C57.8959 31.5729 59.1641 31.1744 59.9903 30.3772C60.8309 29.5656 61.2512 28.3336 61.2512 26.6814C61.2512 25.0146 60.8309 23.7826 59.9903 22.9855C59.1641 22.1884 57.8959 21.7898 56.1857 21.7898H53.9247V31.5729Z" fill="#E41318"/>
<path d="M66.849 26.6814C66.849 25.0871 67.1461 23.7029 67.7404 22.529C68.3491 21.3405 69.2187 20.4201 70.3492 19.7679C71.4797 19.1157 72.8203 18.7896 74.3712 18.7896C75.922 18.7896 77.2626 19.1157 78.3931 19.7679C79.5236 20.4201 80.3932 21.3405 81.002 22.529C81.6252 23.7029 81.9368 25.0798 81.9368 26.6596C81.9368 28.2684 81.6252 29.667 81.002 30.8555C80.3932 32.0295 79.5236 32.9498 78.3931 33.6165C77.2626 34.2687 75.922 34.5949 74.3712 34.5949C72.8203 34.5949 71.4797 34.2687 70.3492 33.6165C69.2332 32.9498 68.3708 32.0222 67.7621 30.8338C67.1534 29.6453 66.849 28.2612 66.849 26.6814ZM70.3927 26.6814C70.3927 28.2612 70.7188 29.5004 71.371 30.399C72.0377 31.2831 73.0378 31.7251 74.3712 31.7251C75.6756 31.7251 76.6684 31.2831 77.3496 30.399C78.0308 29.5004 78.3714 28.2612 78.3714 26.6814C78.3714 25.0871 78.0308 23.8551 77.3496 22.9855C76.6829 22.1014 75.6901 21.6593 74.3712 21.6593C73.0378 21.6593 72.0377 22.1014 71.371 22.9855C70.7188 23.8551 70.3927 25.0871 70.3927 26.6814Z" fill="#E41318"/>
<path d="M90.1312 34.5949C88.8993 34.5949 87.747 34.4427 86.6745 34.1383C85.602 33.8339 84.6889 33.4136 83.9352 32.8774L84.9353 30.225C85.4281 30.5584 85.9498 30.841 86.5006 31.0729C87.0513 31.3048 87.6311 31.486 88.2398 31.6164C88.8485 31.7324 89.4863 31.7903 90.153 31.7903C91.1965 31.7903 91.9357 31.6309 92.3705 31.3121C92.8198 30.9932 93.0444 30.5874 93.0444 30.0946C93.0444 29.6453 92.8922 29.3047 92.5879 29.0728C92.298 28.8264 91.7617 28.6163 90.9791 28.4423L88.4137 27.9206C87.0079 27.6307 85.9571 27.1379 85.2614 26.4422C84.5657 25.7465 84.2178 24.8189 84.2178 23.6595C84.2178 22.6739 84.4787 21.8188 85.0005 21.0941C85.5223 20.3694 86.2542 19.8042 87.1963 19.3983C88.1528 18.9925 89.2689 18.7896 90.5443 18.7896C91.6313 18.7896 92.6459 18.9418 93.5879 19.2462C94.53 19.5505 95.3054 19.9853 95.9142 20.5506L94.9141 23.029C94.3199 22.5507 93.6532 22.1956 92.914 21.9637C92.1893 21.7173 91.3777 21.5941 90.4791 21.5941C89.537 21.5941 88.8123 21.7608 88.305 22.0941C87.8122 22.4275 87.5659 22.884 87.5659 23.4638C87.5659 23.8986 87.718 24.2537 88.0224 24.5291C88.3268 24.7899 88.863 25.0001 89.6312 25.1595L92.1531 25.6596C93.5879 25.9494 94.6532 26.435 95.3489 27.1162C96.0446 27.7974 96.3924 28.7032 96.3924 29.8337C96.3924 30.7903 96.1316 31.6237 95.6098 32.3339C95.1025 33.044 94.3778 33.602 93.4358 34.0079C92.5082 34.3992 91.4067 34.5949 90.1312 34.5949Z" fill="#E41318"/>
<path d="M98.897 34.3557V19.0288H102.288V25.703H102.332L108.615 19.0288H112.637L104.919 27.0509L104.941 25.6596L113.115 34.3557H108.963L102.332 27.3553H102.288V34.3557H98.897Z" fill="#E41318"/>
<path d="M111.466 34.3557L118.51 19.0288H121.314L128.445 34.3557H125.01L123.162 30.0946L124.488 31.0294H115.379L116.727 30.0946L114.879 34.3557H111.466ZM119.901 22.5942L117.097 29.2467L116.51 28.4206H123.358L122.858 29.2467L119.988 22.5942H119.901Z" fill="#E41318"/>
<path d="M158.237 34.3557L165.281 19.0287H168.086L175.217 34.3557H171.782L169.934 30.0946L171.26 31.0294H162.151L163.498 30.0946L161.651 34.3557H158.237ZM166.673 22.5942L163.868 29.2467L163.281 28.4206H170.129L169.629 29.2467L166.76 22.5942H166.673Z" fill="#1753ED"/>
<path d="M136.248 34.5948C134.001 34.5948 132.327 34.0368 131.226 32.9208C130.124 31.8048 129.573 30.1453 129.573 27.9423V19.0287H132.965V27.964C132.965 29.196 133.226 30.1308 133.747 30.7685C134.284 31.4063 135.117 31.7251 136.248 31.7251C137.349 31.7251 138.168 31.4063 138.704 30.7685C139.255 30.1308 139.53 29.196 139.53 27.964V19.0287H142.878V27.9423C142.878 30.1453 142.32 31.8048 141.204 32.9208C140.103 34.0368 138.451 34.5948 136.248 34.5948Z" fill="#1753ED"/>
<path d="M151.424 34.5949C150.192 34.5949 149.04 34.4427 147.968 34.1383C146.895 33.8339 145.982 33.4136 145.228 32.8774L146.228 30.225C146.721 30.5584 147.243 30.841 147.794 31.0729C148.344 31.3048 148.924 31.486 149.533 31.6164C150.142 31.7324 150.779 31.7903 151.446 31.7903C152.49 31.7903 153.229 31.6309 153.664 31.3121C154.113 30.9932 154.337 30.5874 154.337 30.0946C154.337 29.6453 154.185 29.3047 153.881 29.0728C153.591 28.8264 153.055 28.6163 152.272 28.4423L149.707 27.9206C148.301 27.6307 147.25 27.1379 146.554 26.4422C145.859 25.7465 145.511 24.8189 145.511 23.6595C145.511 22.6739 145.772 21.8188 146.294 21.0941C146.815 20.3694 147.547 19.8042 148.489 19.3983C149.446 18.9925 150.562 18.7896 151.837 18.7896C152.924 18.7896 153.939 18.9418 154.881 19.2462C155.823 19.5505 156.598 19.9853 157.207 20.5506L156.207 23.029C155.613 22.5507 154.946 22.1956 154.207 21.9637C153.482 21.7173 152.671 21.5941 151.772 21.5941C150.83 21.5941 150.105 21.7608 149.598 22.0941C149.105 22.4275 148.859 22.884 148.859 23.4638C148.859 23.8986 149.011 24.2537 149.315 24.5291C149.62 24.7899 150.156 25.0001 150.924 25.1595L153.446 25.6596C154.881 25.9494 155.946 26.435 156.642 27.1162C157.338 27.7974 157.685 28.7032 157.685 29.8337C157.685 30.7903 157.425 31.6237 156.903 32.3339C156.396 33.044 155.671 33.602 154.729 34.0079C153.801 34.3992 152.7 34.5949 151.424 34.5949Z" fill="#1753ED"/>
<path d="M11.476 37.5974C15.3487 30.7085 23.1465 16.7663 23.3562 16.1086L24.9628 16.9693C21.0234 24.2859 13.0996 39.0162 12.92 39.4048C12.7403 39.7934 12.0229 39.4748 11.6867 39.2669L11.476 37.5974Z" fill="#413E3E"/>
<ellipse cx="19.1573" cy="26.2529" rx="12.8607" ry="5.75347" transform="rotate(22.1997 19.1573 26.2529)" fill="#D5D5D5"/>
<path d="M36.3222 10.8031L30.5753 6.86886C28.8357 6.3528 25.2555 5.30941 24.8519 5.2643C24.4483 5.21919 21.6775 4.72032 20.4174 4.31461C20.4895 5.19296 20.9352 6.89253 21.1178 9.72812C21.346 13.2726 20.7214 15.8136 14.0931 16.7188C9.74605 17.3124 7.36116 21.2483 7.25046 21.573C5.72276 26.0551 15.3455 31.2857 17.629 32.0551C23.379 33.9926 26.5353 33.6489 29.0353 32.8676C30.8165 32.0551 31.2082 31.5813 31.3394 29.4871C31.6083 25.1944 28.6291 20.7273 28.6249 17.7186C28.6214 15.3117 33.4226 12.371 36.3222 10.8031Z" fill="#F4F4F4" stroke="#E41318"/>
<path d="M21.8314 27.5143C17.0952 27.4436 10.0056 24.0093 7.11914 22.4777V20.9313L8.53293 19.5617C9.32819 20.357 11.5196 22.1065 17.811 23.4496C24.1023 24.7927 28.4439 23.3613 29.8282 22.4777C30.1227 23.4202 30.7648 25.3759 30.9769 25.6587C31.242 26.0121 27.7517 27.6027 21.8314 27.5143Z" fill="#E41318"/>
<path d="M22.5825 33.2578C17.8463 33.1871 12.8965 29.1342 10.01 27.6026L9.32617 26.4926C9.79744 27.229 12.9967 28.7982 19.288 30.1413C25.5794 31.4844 29.9209 30.0529 31.3053 29.1693C31.5998 30.1118 30.2346 32.2681 30.4467 32.5509C30.7118 32.9043 28.5028 33.3461 22.5825 33.2578Z" fill="#E41318"/>
<path d="M23.2009 21.4174C19.0479 21.4174 13.1237 19.1501 10.0136 18.1478L11.9161 17.3729L14.0113 16.6456C14.6042 17.2881 16.9714 17.7499 21.7429 18.1478C25.1331 18.4304 27.2061 18.1117 28.4143 16.9993C28.8693 17.8757 28.9444 20.543 29.2028 20.7842C29.5257 21.0858 29.1218 21.4174 23.2009 21.4174Z" fill="#E41318"/>
<path d="M31.8165 13.7742C28.0817 16.6876 22.8419 15.0862 19.5783 14.923L20.5945 13.7742L21.2572 11.8744C21.9962 12.3415 24.0028 12.3534 30.2701 10.9021C36.5374 9.45082 35.7531 9.28532 36.6322 7.89808C38.0138 8.99262 37.1388 9.68011 36.6322 10.4088C36.38 10.7715 34.814 11.4358 31.8165 13.7742Z" fill="#E41318"/>
<ellipse cx="8.81292" cy="4.2802" rx="8.81292" ry="4.2802" transform="matrix(0.955751 0.294176 -0.350065 0.936726 22.1541 -0.155945)" fill="#1753ED"/>
<path d="M30.3487 3.40754L30.8312 5.41002L34.4075 6.51377L31.1294 6.64763L31.6119 8.65012L29.1034 6.73036L25.8253 6.86423L27.5531 5.54389L25.0446 3.62413L28.6209 4.72787L30.3487 3.40754Z" fill="white"/>
</svg>
