<svg width="33" height="43" viewBox="0 0 33 43" fill="none" xmlns="http://www.w3.org/2000/svg">
<path d="M5.95709 39.1478C9.51586 32.2589 16.6816 18.3167 16.8743 17.659L18.3506 18.5197C14.7305 25.8363 7.4491 40.5666 7.28401 40.9552C7.11893 41.3438 6.4597 41.0252 6.15072 40.8174L5.95709 39.1478Z" fill="#413E3E"/>
<ellipse cx="11.9725" cy="5.68922" rx="11.9725" ry="5.68922" transform="matrix(0.913933 0.405865 -0.351128 0.936327 4.07146 17.6171)" fill="#D5D5D5"/>
<path d="M28.7894 12.3535L23.5083 8.41928C21.9097 7.90322 18.6198 6.85982 18.2489 6.81471C17.878 6.7696 15.3318 6.27073 14.1739 5.86503C14.2401 6.74337 14.6497 8.44295 14.8175 11.2785C15.0272 14.823 14.4532 17.3641 8.36224 18.2692C4.36758 18.8629 2.17601 22.7987 2.07429 23.1235C0.670433 27.6055 9.51311 32.8361 11.6115 33.6056C16.8954 35.5431 19.7958 35.1993 22.0931 34.418C23.73 33.6056 24.0899 33.1317 24.2104 31.0375C24.4575 26.7449 21.7199 22.2777 21.716 19.269C21.7128 16.8621 26.1248 13.9214 28.7894 12.3535Z" fill="#F4F4F4" stroke="#E41318"/>
<path d="M15.4732 29.0647C11.1209 28.994 4.60603 25.5597 1.95353 24.0281V22.4817L3.25271 21.1121C3.98351 21.9074 5.99724 23.6569 11.7786 25.0001C17.56 26.3432 21.5496 24.9117 22.8217 24.0281C23.0924 24.9706 23.6824 26.9263 23.8773 27.2091C24.1209 27.5626 20.9135 29.1531 15.4732 29.0647Z" fill="#E41318"/>
<path d="M16.1634 34.8082C11.8111 34.7375 7.26258 30.6846 4.61008 29.153L3.98167 28.043C4.41473 28.7794 7.35461 30.3486 13.136 31.6917C18.9173 33.0348 22.9069 31.6033 24.179 30.7197C24.4497 31.6622 23.1952 33.8185 23.3901 34.1013C23.6337 34.4547 21.6037 34.8966 16.1634 34.8082Z" fill="#E41318"/>
<path d="M16.7317 22.9678C12.9154 22.9678 7.47146 20.7005 4.61344 19.6982L6.36177 18.9233L8.28704 18.1961C8.83193 18.8385 11.0072 19.3003 15.392 19.6982C18.5073 19.9809 20.4123 19.6621 21.5225 18.5497C21.9407 19.4261 22.0097 22.0934 22.2471 22.3347C22.5438 22.6362 22.1727 22.9678 16.7317 22.9678Z" fill="#E41318"/>
<path d="M24.6487 15.3246C21.2167 18.238 16.4016 16.6366 13.4026 16.4734L14.3364 15.3246L14.9454 13.4249C15.6245 13.8919 17.4684 13.9038 23.2277 12.4525C28.987 11.0012 28.2662 10.8357 29.074 9.4485C30.3436 10.543 29.5396 11.2305 29.074 11.9592C28.8423 12.3219 27.4033 12.9862 24.6487 15.3246Z" fill="#E41318"/>
<ellipse cx="8.92776" cy="4.92156" rx="8.92776" ry="4.92156" transform="matrix(0.940553 0.339646 -0.303509 0.952829 15.4448 0.25)" fill="#1753ED"/>
<path d="M23.6142 4.41789L24.0952 6.76002L27.6605 8.05096L24.3925 8.20753L24.8735 10.5497L22.3727 8.3043L19.1047 8.46087L20.8272 6.91659L18.3264 4.67122L21.8917 5.96217L23.6142 4.41789Z" fill="white"/>
</svg>
