<svg width="176" height="45" viewBox="0 0 176 45" fill="none" xmlns="http://www.w3.org/2000/svg">
<path d="M50.5331 33.9061V18.5792H56.3812C58.1639 18.5792 59.6713 18.8835 60.9032 19.4923C62.1352 20.101 63.0628 20.9779 63.686 22.1228C64.3237 23.2533 64.6426 24.623 64.6426 26.2318C64.6426 27.8261 64.3237 29.1957 63.686 30.3407C63.0628 31.4857 62.1352 32.3698 60.9032 32.993C59.6713 33.6018 58.1639 33.9061 56.3812 33.9061H50.5331ZM53.9246 31.1234H56.1856C57.8958 31.1234 59.164 30.7248 59.9901 29.9276C60.8308 29.116 61.2511 27.884 61.2511 26.2318C61.2511 24.565 60.8308 23.3331 59.9901 22.5359C59.164 21.7388 57.8958 21.3402 56.1856 21.3402H53.9246V31.1234Z" fill="#E41318"/>
<path d="M66.8489 26.2318C66.8489 24.6375 67.146 23.2533 67.7402 22.0794C68.349 20.8909 69.2186 19.9706 70.3491 19.3183C71.4796 18.6661 72.8202 18.34 74.371 18.34C75.9219 18.34 77.2625 18.6661 78.393 19.3183C79.5235 19.9706 80.3931 20.8909 81.0018 22.0794C81.6251 23.2533 81.9367 24.6302 81.9367 26.21C81.9367 27.8188 81.6251 29.2175 81.0018 30.4059C80.3931 31.5799 79.5235 32.5002 78.393 33.1669C77.2625 33.8192 75.9219 34.1453 74.371 34.1453C72.8202 34.1453 71.4796 33.8192 70.3491 33.1669C69.2331 32.5002 68.3707 31.5727 67.762 30.3842C67.1532 29.1957 66.8489 27.8116 66.8489 26.2318ZM70.3926 26.2318C70.3926 27.8116 70.7187 29.0508 71.3709 29.9494C72.0376 30.8335 73.0376 31.2755 74.371 31.2755C75.6755 31.2755 76.6683 30.8335 77.3495 29.9494C78.0307 29.0508 78.3713 27.8116 78.3713 26.2318C78.3713 24.6375 78.0307 23.4055 77.3495 22.5359C76.6828 21.6518 75.69 21.2098 74.371 21.2098C73.0376 21.2098 72.0376 21.6518 71.3709 22.5359C70.7187 23.4055 70.3926 24.6375 70.3926 26.2318Z" fill="#E41318"/>
<path d="M90.1311 34.1453C88.8991 34.1453 87.7469 33.9931 86.6744 33.6887C85.6019 33.3844 84.6888 32.964 83.9351 32.4278L84.9352 29.7755C85.4279 30.1088 85.9497 30.3914 86.5005 30.6233C87.0512 30.8552 87.631 31.0364 88.2397 31.1668C88.8484 31.2828 89.4861 31.3408 90.1528 31.3408C91.1964 31.3408 91.9355 31.1813 92.3704 30.8625C92.8197 30.5436 93.0443 30.1378 93.0443 29.645C93.0443 29.1957 92.8921 28.8551 92.5878 28.6232C92.2979 28.3768 91.7616 28.1667 90.979 27.9927L88.4136 27.471C87.0077 27.1811 85.9569 26.6883 85.2613 25.9926C84.5656 25.2969 84.2177 24.3694 84.2177 23.2099C84.2177 22.2243 84.4786 21.3692 85.0004 20.6445C85.5221 19.9198 86.2541 19.3546 87.1961 18.9488C88.1527 18.5429 89.2687 18.34 90.5442 18.34C91.6312 18.34 92.6457 18.4922 93.5878 18.7966C94.5299 19.1009 95.3053 19.5357 95.914 20.101L94.914 22.5794C94.3197 22.1011 93.653 21.746 92.9139 21.5141C92.1892 21.2677 91.3775 21.1445 90.4789 21.1445C89.5369 21.1445 88.8122 21.3112 88.3049 21.6446C87.8121 21.9779 87.5657 22.4345 87.5657 23.0142C87.5657 23.449 87.7179 23.8041 88.0223 24.0795C88.3266 24.3404 88.8629 24.5505 89.6311 24.71L92.153 25.21C93.5878 25.4998 94.6531 25.9854 95.3488 26.6666C96.0445 27.3478 96.3923 28.2536 96.3923 29.3841C96.3923 30.3407 96.1314 31.1741 95.6097 31.8843C95.1024 32.5945 94.3777 33.1525 93.4356 33.5583C92.508 33.9496 91.4065 34.1453 90.1311 34.1453Z" fill="#E41318"/>
<path d="M98.8969 33.9061V18.5792H102.288V25.2535H102.332L108.615 18.5792H112.637L104.919 26.6014L104.941 25.21L113.115 33.9061H108.963L102.332 26.9057H102.288V33.9061H98.8969Z" fill="#E41318"/>
<path d="M111.466 33.9061L118.51 18.5792H121.314L128.445 33.9061H125.01L123.162 29.645L124.488 30.5798H115.379L116.727 29.645L114.879 33.9061H111.466ZM119.901 22.1446L117.096 28.7971L116.509 27.971H123.358L122.858 28.7971L119.988 22.1446H119.901Z" fill="#E41318"/>
<path d="M136.248 34.1453C134.001 34.1453 132.327 33.5873 131.226 32.4713C130.124 31.3553 129.573 29.6957 129.573 27.4927V18.5792H132.965V27.5145C132.965 28.7464 133.226 29.6812 133.748 30.319C134.284 30.9567 135.117 31.2755 136.248 31.2755C137.349 31.2755 138.168 30.9567 138.704 30.319C139.255 29.6812 139.53 28.7464 139.53 27.5145V18.5792H142.878V27.4927C142.878 29.6957 142.32 31.3553 141.204 32.4713C140.103 33.5873 138.451 34.1453 136.248 34.1453Z" fill="#E41318"/>
<path d="M151.424 34.1453C150.192 34.1453 149.04 33.9931 147.968 33.6887C146.895 33.3844 145.982 32.964 145.228 32.4278L146.229 29.7755C146.721 30.1088 147.243 30.3914 147.794 30.6233C148.345 30.8552 148.924 31.0364 149.533 31.1668C150.142 31.2828 150.779 31.3408 151.446 31.3408C152.49 31.3408 153.229 31.1813 153.664 30.8625C154.113 30.5436 154.338 30.1378 154.338 29.645C154.338 29.1957 154.185 28.8551 153.881 28.6232C153.591 28.3768 153.055 28.1667 152.272 27.9927L149.707 27.471C148.301 27.1811 147.25 26.6883 146.555 25.9926C145.859 25.2969 145.511 24.3694 145.511 23.2099C145.511 22.2243 145.772 21.3692 146.294 20.6445C146.815 19.9198 147.547 19.3546 148.49 18.9488C149.446 18.5429 150.562 18.34 151.838 18.34C152.925 18.34 153.939 18.4922 154.881 18.7966C155.823 19.1009 156.599 19.5357 157.207 20.101L156.207 22.5794C155.613 22.1011 154.946 21.746 154.207 21.5141C153.483 21.2677 152.671 21.1445 151.772 21.1445C150.83 21.1445 150.106 21.3112 149.598 21.6446C149.105 21.9779 148.859 22.4345 148.859 23.0142C148.859 23.449 149.011 23.8041 149.316 24.0795C149.62 24.3404 150.156 24.5505 150.924 24.71L153.446 25.21C154.881 25.4998 155.946 25.9854 156.642 26.6666C157.338 27.3478 157.686 28.2536 157.686 29.3841C157.686 30.3407 157.425 31.1741 156.903 31.8843C156.396 32.5945 155.671 33.1525 154.729 33.5583C153.801 33.9496 152.7 34.1453 151.424 34.1453Z" fill="#E41318"/>
<path d="M158.237 33.9061L165.281 18.5792H168.086L175.216 33.9061H171.781L169.933 29.645L171.26 30.5798H162.15L163.498 29.645L161.65 33.9061H158.237ZM166.672 22.1446L163.868 28.7971L163.281 27.971H170.129L169.629 28.7971L166.759 22.1446H166.672Z" fill="#E41318"/>
<path d="M10.9571 37.1478C14.5159 30.2589 21.6816 16.3167 21.8743 15.659L23.3506 16.5197C19.7305 23.8363 12.4491 38.5666 12.284 38.9552C12.1189 39.3438 11.4597 39.0252 11.1507 38.8174L10.9571 37.1478Z" fill="#413E3E"/>
<ellipse cx="11.9725" cy="5.68922" rx="11.9725" ry="5.68922" transform="matrix(0.913933 0.405865 -0.351128 0.936327 9.07146 15.6171)" fill="#D5D5D5"/>
<path d="M33.7894 10.3535L28.5083 6.41928C26.9097 5.90322 23.6198 4.85982 23.2489 4.81471C22.878 4.7696 20.3318 4.27073 19.1739 3.86503C19.2401 4.74337 19.6497 6.44295 19.8175 9.27853C20.0272 12.823 19.4532 15.3641 13.3622 16.2692C9.36758 16.8629 7.17601 20.7987 7.07429 21.1235C5.67043 25.6055 14.5131 30.8361 16.6115 31.6056C21.8954 33.5431 24.7958 33.1993 27.0931 32.418C28.73 31.6056 29.0899 31.1317 29.2104 29.0375C29.4575 24.7449 26.7199 20.2777 26.716 17.269C26.7128 14.8621 31.1248 11.9214 33.7894 10.3535Z" fill="#F4F4F4" stroke="#E41318"/>
<path d="M20.4732 27.0647C16.1209 26.994 9.60603 23.5597 6.95353 22.0281V20.4817L8.25271 19.1121C8.98351 19.9074 10.9972 21.6569 16.7786 23.0001C22.56 24.3432 26.5496 22.9117 27.8217 22.0281C28.0924 22.9706 28.6824 24.9263 28.8773 25.2091C29.1209 25.5626 25.9135 27.1531 20.4732 27.0647Z" fill="#E41318"/>
<path d="M21.1634 32.8082C16.8111 32.7375 12.2626 28.6846 9.61008 27.153L8.98167 26.043C9.41473 26.7794 12.3546 28.3486 18.136 29.6917C23.9173 31.0348 27.9069 29.6033 29.179 28.7197C29.4497 29.6622 28.1952 31.8185 28.3901 32.1013C28.6337 32.4547 26.6037 32.8966 21.1634 32.8082Z" fill="#E41318"/>
<path d="M21.7317 20.9678C17.9154 20.9678 12.4715 18.7005 9.61344 17.6982L11.3618 16.9233L13.287 16.1961C13.8319 16.8385 16.0072 17.3003 20.392 17.6982C23.5073 17.9809 25.4123 17.6621 26.5225 16.5497C26.9407 17.4261 27.0097 20.0934 27.2471 20.3347C27.5438 20.6362 27.1727 20.9678 21.7317 20.9678Z" fill="#E41318"/>
<path d="M29.6487 13.3246C26.2167 16.238 21.4016 14.6366 18.4026 14.4734L19.3364 13.3246L19.9454 11.4249C20.6245 11.8919 22.4684 11.9038 28.2277 10.4525C33.987 9.00123 33.2662 8.83574 34.074 7.4485C35.3436 8.54303 34.5396 9.23053 34.074 9.95919C33.8423 10.3219 32.4033 10.9862 29.6487 13.3246Z" fill="#E41318"/>
<ellipse cx="8.92776" cy="4.92156" rx="8.92776" ry="4.92156" transform="matrix(0.940553 0.339646 -0.303509 0.952829 20.4448 -1.75)" fill="#1753ED"/>
<path d="M28.6142 2.41789L29.0952 4.76002L32.6605 6.05096L29.3925 6.20753L29.8735 8.54966L27.3727 6.3043L24.1047 6.46087L25.8272 4.91659L23.3264 2.67122L26.8917 3.96217L28.6142 2.41789Z" fill="white"/>
</svg>
